<svg xmlns="http://www.w3.org/2000/svg" viewBox="0 0 1026.91 276.32"><defs><style>.cls-1{fill:#e12629;}.cls-2{fill:#fff;}.cls-3{fill:#c52426;}.cls-4{fill:#91191b;}.cls-5{fill:#751416;}</style></defs><title>MarsBahis_Orginal</title><g id="Layer_2" data-name="Layer 2"><g id="Layer_1-2" data-name="Layer 1"><path class="cls-1" d="M249.78,258.24v3H244v15.09H240.4V261.23h-5.78v-3Zm19.55,18.08-.66-10.64c-.07-1.4-.07-3.12-.13-5.05h-.2c-.47,1.6-1,3.72-1.53,5.38l-3.26,10h-3.72l-3.26-10.3c-.33-1.4-.86-3.52-1.26-5.12h-.2c0,1.66-.07,3.39-.13,5.05l-.66,10.64h-3.46l1.33-18.08h5.39l3.12,8.84c.4,1.4.73,2.73,1.2,4.59h.07c.47-1.66.86-3.19,1.26-4.52l3.12-8.91h5.19l1.4,18.08Z"/><path class="cls-1" d="M997.61,182.59c8.56,0,15.67-2.1,21.13-6.23s8.17-9.36,8.17-15.63a22.34,22.34,0,0,0-4.37-14c-2.92-3.78-9.25-8.23-18.82-13.22l-2.16-1.09c-12.18-6.38-18.1-11.64-18.1-16.08,0-3.12,1.52-5.69,4.52-7.66s6.75-2.9,11.35-2.9a33.66,33.66,0,0,1,11.43,2.06,56.22,56.22,0,0,1,11.6,6.05V101.35a53.14,53.14,0,0,0-11.06-4.21,46.83,46.83,0,0,0-11.39-1.41c-8.6,0-15.72,2.1-21.17,6.23s-8.14,9.42-8.14,15.81a17.6,17.6,0,0,0,4.25,11.79c2.86,3.33,10,8.13,21.33,14.25,7.47,4,12.08,7,14.09,9.1a10.8,10.8,0,0,1,3.06,7.58,9.67,9.67,0,0,1-4.55,8.38c-3,2-7,3-12.12,3a31.77,31.77,0,0,1-13.52-3,49.06,49.06,0,0,1-12.39-8.8v14.57a43,43,0,0,0,12.27,6A51.7,51.7,0,0,0,997.61,182.59Z"/><path class="cls-2" d="M384.72,127.41l-28.6-33H336.89v88.93H359V127.86l24,27.88h3.33l24-27.88v55.51h22.15V94.44H413.3Zm93.87-33-35.92,88.93h23.47l6.64-17.57h39.82l7.32,17.57h23.82l-39.5-88.93Zm.06,55.83,13.06-34.57,14.41,34.57Zm128.88-8.5q15.27-7.06,15.27-21.76a23.76,23.76,0,0,0-8.08-18.1q-8.09-7.48-21-7.48H554v88.93h22.15V147.27h6.37a12.08,12.08,0,0,1,8.24,3.5q3.85,3.5,9.26,15.85t7.58,16.74h24.31q-5.62-11.83-11.65-25.19T607.54,141.77Zm-10.79-13.43q-3.28,2.64-8.88,2.64H576.15V110.73h11.2q12.67,0,12.67,10.06A9.13,9.13,0,0,1,596.75,128.33ZM702.28,143.2a30.74,30.74,0,0,0-10.22-8.78,135,135,0,0,0-15.79-6.75q-9.87-3.63-12.41-5.92a6.56,6.56,0,0,1-2.55-4.84q0-3.31,3.53-5.32t9.52-2q10.5,0,28.2,8V100.16q-15.85-6.87-30.11-6.87-15.47,0-24.7,7a22.16,22.16,0,0,0-9.23,18.5q0,8.85,4.23,14.52a29.78,29.78,0,0,0,10.05,8.72,127.53,127.53,0,0,0,15.79,6.62q10,3.56,12.57,6a7.27,7.27,0,0,1,2.61,5.28q0,8.21-13,8.21a39,39,0,0,1-14.58-2.74,87.07,87.07,0,0,1-15.78-8.72v19.16a65.44,65.44,0,0,0,32.08,8.59q15.34,0,24.73-7.32t9.39-19.67Q706.58,148.87,702.28,143.2Z"/><path class="cls-1" d="M721.72,181.42V96.64h24.78q12.67,0,19.54,5.76t6.88,16.36a18.4,18.4,0,0,1-3.09,10.91,19.45,19.45,0,0,1-9.45,6.73q9.27,2.18,14.33,7.94a20.47,20.47,0,0,1,5.06,14q0,10.54-7.73,16.82t-20.94,6.27Zm12-48.42h8.18q9.27,0,13.76-3.33t4.48-10.18q0-6.24-3.54-9.09t-11.3-2.85H733.72Zm0,11.09v26.3h16.12q8.85,0,12.94-3.12t4.09-9.79q0-6.91-4.58-10.15t-14.39-3.24Z"/><path class="cls-1" d="M781.78,181.42,818.5,96.64h8.85l37.21,84.78H852l-10.91-25H805l-10.79,25Zm27.94-35.87h26.42L822.74,115Z"/><rect class="cls-1" x="947.86" y="96.64" width="12.12" height="10.91"/><rect class="cls-1" x="947.86" y="114.96" width="12.12" height="66.46"/><polygon class="cls-1" points="922.73 96.46 922.73 133.12 883.11 133.12 883.11 96.46 871.03 96.46 871.03 181.21 883.11 181.21 883.11 144.58 922.73 144.58 922.73 181.21 934.81 181.21 934.81 96.46 922.73 96.46"/><polygon class="cls-3" points="238.02 36.82 274.84 100.6 274.84 174.24 238.02 238.02 174.24 274.84 100.6 274.84 36.82 238.02 0 174.24 0 100.6 36.82 36.82 100.6 0 174.24 0 238.02 36.82"/><polygon class="cls-3" points="272.6 101.2 272.6 173.65 257.81 199.26 217.32 129.06 272.6 101.2"/><polygon class="cls-1" points="236.37 38.47 272.6 101.2 217.32 129.06 191.1 59.62 236.37 38.47"/><polygon class="cls-4" points="257.81 199.26 236.37 236.38 217.32 129.06 257.81 199.26"/><polygon class="cls-3" points="217.32 129.06 236.37 236.38 173.64 272.6 152.29 190.35 217.32 129.06"/><polygon class="cls-3" points="236.37 38.47 191.1 59.62 129.49 47.36 173.64 2.24 236.37 38.47"/><polygon class="cls-3" points="191.1 59.62 217.32 129.06 138.48 118.84 191.1 59.62"/><polygon class="cls-4" points="217.32 129.06 152.29 190.35 93.86 169.39 138.48 118.84 217.32 129.06"/><polygon class="cls-4" points="191.1 59.62 138.48 118.84 129.49 47.36 191.1 59.62"/><polygon class="cls-1" points="173.64 2.24 129.49 47.36 101.19 2.24 173.64 2.24"/><polygon class="cls-4" points="152.29 190.35 173.64 272.6 105.72 233.38 152.29 190.35"/><polygon class="cls-5" points="105.72 233.38 173.64 272.6 101.19 272.6 38.46 236.38 61.88 208.07 105.72 233.38"/><polygon class="cls-3" points="152.29 190.35 105.72 233.38 61.88 208.07 93.86 169.39 152.29 190.35"/><polygon class="cls-1" points="129.49 47.36 138.48 118.84 68.64 109.8 68.56 109.61 129.49 47.36"/><polygon class="cls-3" points="138.48 118.84 93.86 169.39 68.64 109.8 138.48 118.84"/><polygon class="cls-3" points="101.19 2.24 129.49 47.36 68.56 109.61 38.46 38.47 101.19 2.24"/><polygon class="cls-5" points="68.64 109.8 93.86 169.39 61.88 208.07 2.24 173.65 2.24 101.2 68.64 109.8"/><polygon class="cls-4" points="68.56 109.61 68.64 109.8 2.24 101.2 38.46 38.47 68.56 109.61"/><polygon class="cls-4" points="61.88 208.07 38.46 236.38 2.24 173.65 61.88 208.07"/><path class="cls-2" d="M96.46,74.08H68.92V200.76h31.72V121.69L135,161.41h4.76l34.4-39.72v79.07h31.72V74.08H178.35l-40.93,47Z"/></g></g></svg>